<mxfile host="Electron" modified="2023-05-09T12:43:35.649Z" agent="Mozilla/5.0 (Windows NT 10.0; Win64; x64) AppleWebKit/537.36 (KHTML, like Gecko) draw.io/21.2.8 Chrome/112.0.5615.165 Electron/24.2.0 Safari/537.36" etag="eHFPzvNQzpqh-ucGpTWy" version="21.2.8" type="device">
  <diagram name="Page-1" id="AQJS0DCxsyhzYgY-xDyS">
    <mxGraphModel dx="2570" dy="3028" grid="1" gridSize="10" guides="1" tooltips="1" connect="1" arrows="1" fold="1" page="1" pageScale="1" pageWidth="850" pageHeight="1100" math="0" shadow="0">
      <root>
        <mxCell id="0" />
        <mxCell id="1" parent="0" />
        <mxCell id="l1iqNx5NcCHNy8qaXpVw-1" value="USER" style="swimlane;fontStyle=1;align=center;verticalAlign=top;childLayout=stackLayout;horizontal=1;startSize=26;horizontalStack=0;resizeParent=1;resizeParentMax=0;resizeLast=0;collapsible=1;marginBottom=0;" parent="1" vertex="1">
          <mxGeometry x="155" y="160" width="290" height="456" as="geometry">
            <mxRectangle x="310" y="-200" width="70" height="30" as="alternateBounds" />
          </mxGeometry>
        </mxCell>
        <mxCell id="l1iqNx5NcCHNy8qaXpVw-2" value="-User_ID:Integer" style="text;align=left;verticalAlign=top;spacingLeft=4;spacingRight=4;overflow=hidden;rotatable=0;points=[[0,0.5],[1,0.5]];portConstraint=eastwest;" parent="l1iqNx5NcCHNy8qaXpVw-1" vertex="1">
          <mxGeometry y="26" width="290" height="26" as="geometry" />
        </mxCell>
        <mxCell id="l1iqNx5NcCHNy8qaXpVw-22" value="-Fullname: string" style="text;align=left;verticalAlign=top;spacingLeft=4;spacingRight=4;overflow=hidden;rotatable=0;points=[[0,0.5],[1,0.5]];portConstraint=eastwest;" parent="l1iqNx5NcCHNy8qaXpVw-1" vertex="1">
          <mxGeometry y="52" width="290" height="26" as="geometry" />
        </mxCell>
        <mxCell id="l1iqNx5NcCHNy8qaXpVw-31" value="-UserName:VarVhar" style="text;align=left;verticalAlign=top;spacingLeft=4;spacingRight=4;overflow=hidden;rotatable=0;points=[[0,0.5],[1,0.5]];portConstraint=eastwest;" parent="l1iqNx5NcCHNy8qaXpVw-1" vertex="1">
          <mxGeometry y="78" width="290" height="22" as="geometry" />
        </mxCell>
        <mxCell id="l1iqNx5NcCHNy8qaXpVw-23" value="-Email:VarChar" style="text;align=left;verticalAlign=top;spacingLeft=4;spacingRight=4;overflow=hidden;rotatable=0;points=[[0,0.5],[1,0.5]];portConstraint=eastwest;" parent="l1iqNx5NcCHNy8qaXpVw-1" vertex="1">
          <mxGeometry y="100" width="290" height="22" as="geometry" />
        </mxCell>
        <mxCell id="l1iqNx5NcCHNy8qaXpVw-24" value="-Password:VarChar" style="text;align=left;verticalAlign=top;spacingLeft=4;spacingRight=4;overflow=hidden;rotatable=0;points=[[0,0.5],[1,0.5]];portConstraint=eastwest;" parent="l1iqNx5NcCHNy8qaXpVw-1" vertex="1">
          <mxGeometry y="122" width="290" height="24" as="geometry" />
        </mxCell>
        <mxCell id="l1iqNx5NcCHNy8qaXpVw-27" value="-Phone_Number:Integer" style="text;align=left;verticalAlign=top;spacingLeft=4;spacingRight=4;overflow=hidden;rotatable=0;points=[[0,0.5],[1,0.5]];portConstraint=eastwest;" parent="l1iqNx5NcCHNy8qaXpVw-1" vertex="1">
          <mxGeometry y="146" width="290" height="22" as="geometry" />
        </mxCell>
        <mxCell id="l1iqNx5NcCHNy8qaXpVw-28" value="-Address:String" style="text;align=left;verticalAlign=top;spacingLeft=4;spacingRight=4;overflow=hidden;rotatable=0;points=[[0,0.5],[1,0.5]];portConstraint=eastwest;" parent="l1iqNx5NcCHNy8qaXpVw-1" vertex="1">
          <mxGeometry y="168" width="290" height="22" as="geometry" />
        </mxCell>
        <mxCell id="l1iqNx5NcCHNy8qaXpVw-195" value="-ESY_code:Integer" style="text;align=left;verticalAlign=top;spacingLeft=4;spacingRight=4;overflow=hidden;rotatable=0;points=[[0,0.5],[1,0.5]];portConstraint=eastwest;" parent="l1iqNx5NcCHNy8qaXpVw-1" vertex="1">
          <mxGeometry y="190" width="290" height="24" as="geometry" />
        </mxCell>
        <mxCell id="l1iqNx5NcCHNy8qaXpVw-3" value="" style="line;strokeWidth=1;align=left;verticalAlign=middle;spacingTop=-1;spacingLeft=3;spacingRight=3;rotatable=0;labelPosition=right;points=[];portConstraint=eastwest;" parent="l1iqNx5NcCHNy8qaXpVw-1" vertex="1">
          <mxGeometry y="214" width="290" height="8" as="geometry" />
        </mxCell>
        <mxCell id="l1iqNx5NcCHNy8qaXpVw-4" value="+select_product():void" style="text;align=left;verticalAlign=top;spacingLeft=4;spacingRight=4;overflow=hidden;rotatable=0;points=[[0,0.5],[1,0.5]];portConstraint=eastwest;" parent="l1iqNx5NcCHNy8qaXpVw-1" vertex="1">
          <mxGeometry y="222" width="290" height="26" as="geometry" />
        </mxCell>
        <mxCell id="l1iqNx5NcCHNy8qaXpVw-6" value="+select_pharmacy():void" style="text;align=left;verticalAlign=top;spacingLeft=4;spacingRight=4;overflow=hidden;rotatable=0;points=[[0,0.5],[1,0.5]];portConstraint=eastwest;" parent="l1iqNx5NcCHNy8qaXpVw-1" vertex="1">
          <mxGeometry y="248" width="290" height="26" as="geometry" />
        </mxCell>
        <mxCell id="l1iqNx5NcCHNy8qaXpVw-106" value="+select_category():void" style="text;align=left;verticalAlign=top;spacingLeft=4;spacingRight=4;overflow=hidden;rotatable=0;points=[[0,0.5],[1,0.5]];portConstraint=eastwest;" parent="l1iqNx5NcCHNy8qaXpVw-1" vertex="1">
          <mxGeometry y="274" width="290" height="26" as="geometry" />
        </mxCell>
        <mxCell id="l1iqNx5NcCHNy8qaXpVw-18" value="+finish_order():" style="text;align=left;verticalAlign=top;spacingLeft=4;spacingRight=4;overflow=hidden;rotatable=0;points=[[0,0.5],[1,0.5]];portConstraint=eastwest;" parent="l1iqNx5NcCHNy8qaXpVw-1" vertex="1">
          <mxGeometry y="300" width="290" height="26" as="geometry" />
        </mxCell>
        <mxCell id="l1iqNx5NcCHNy8qaXpVw-20" value="+view_order():void" style="text;align=left;verticalAlign=top;spacingLeft=4;spacingRight=4;overflow=hidden;rotatable=0;points=[[0,0.5],[1,0.5]];portConstraint=eastwest;" parent="l1iqNx5NcCHNy8qaXpVw-1" vertex="1">
          <mxGeometry y="326" width="290" height="26" as="geometry" />
        </mxCell>
        <mxCell id="l1iqNx5NcCHNy8qaXpVw-49" value="+AddProduct_favorite()" style="text;align=left;verticalAlign=top;spacingLeft=4;spacingRight=4;overflow=hidden;rotatable=0;points=[[0,0.5],[1,0.5]];portConstraint=eastwest;" parent="l1iqNx5NcCHNy8qaXpVw-1" vertex="1">
          <mxGeometry y="352" width="290" height="26" as="geometry" />
        </mxCell>
        <mxCell id="l1iqNx5NcCHNy8qaXpVw-102" value="+Seect_Buy_More():Boolean" style="text;align=left;verticalAlign=top;spacingLeft=4;spacingRight=4;overflow=hidden;rotatable=0;points=[[0,0.5],[1,0.5]];portConstraint=eastwest;" parent="l1iqNx5NcCHNy8qaXpVw-1" vertex="1">
          <mxGeometry y="378" width="290" height="26" as="geometry" />
        </mxCell>
        <mxCell id="eqAYTbt9n-OWrJhPP6kn-2" value="+Select_Stock():void" style="text;align=left;verticalAlign=top;spacingLeft=4;spacingRight=4;overflow=hidden;rotatable=0;points=[[0,0.5],[1,0.5]];portConstraint=eastwest;" parent="l1iqNx5NcCHNy8qaXpVw-1" vertex="1">
          <mxGeometry y="404" width="290" height="26" as="geometry" />
        </mxCell>
        <mxCell id="l1iqNx5NcCHNy8qaXpVw-105" value="+Select_alt():void" style="text;align=left;verticalAlign=top;spacingLeft=4;spacingRight=4;overflow=hidden;rotatable=0;points=[[0,0.5],[1,0.5]];portConstraint=eastwest;" parent="l1iqNx5NcCHNy8qaXpVw-1" vertex="1">
          <mxGeometry y="430" width="290" height="26" as="geometry" />
        </mxCell>
        <mxCell id="l1iqNx5NcCHNy8qaXpVw-39" value="Products" style="swimlane;fontStyle=1;align=center;verticalAlign=top;childLayout=stackLayout;horizontal=1;startSize=26;horizontalStack=0;resizeParent=1;resizeParentMax=0;resizeLast=0;collapsible=1;marginBottom=0;" parent="1" vertex="1">
          <mxGeometry x="190" y="-440" width="200" height="422" as="geometry">
            <mxRectangle x="900" y="-941" width="90" height="30" as="alternateBounds" />
          </mxGeometry>
        </mxCell>
        <mxCell id="l1iqNx5NcCHNy8qaXpVw-142" value="-Pharmacy_Id : Integer" style="text;html=1;align=left;verticalAlign=middle;resizable=0;points=[];autosize=1;strokeColor=none;fillColor=none;" parent="l1iqNx5NcCHNy8qaXpVw-39" vertex="1">
          <mxGeometry y="26" width="200" height="30" as="geometry" />
        </mxCell>
        <mxCell id="l1iqNx5NcCHNy8qaXpVw-141" value="-Product_Price : Double&amp;nbsp;" style="text;html=1;align=left;verticalAlign=middle;resizable=0;points=[];autosize=1;strokeColor=none;fillColor=none;" parent="l1iqNx5NcCHNy8qaXpVw-39" vertex="1">
          <mxGeometry y="56" width="200" height="30" as="geometry" />
        </mxCell>
        <mxCell id="l1iqNx5NcCHNy8qaXpVw-140" value="-Product_Amount : Integer" style="text;align=left;verticalAlign=top;spacingLeft=4;spacingRight=4;overflow=hidden;rotatable=0;points=[[0,0.5],[1,0.5]];portConstraint=eastwest;rounded=0;shadow=0;html=0;" parent="l1iqNx5NcCHNy8qaXpVw-39" vertex="1">
          <mxGeometry y="86" width="200" height="26" as="geometry" />
        </mxCell>
        <mxCell id="l1iqNx5NcCHNy8qaXpVw-139" value="-Product_Name : String" style="text;align=left;verticalAlign=top;spacingLeft=4;spacingRight=4;overflow=hidden;rotatable=0;points=[[0,0.5],[1,0.5]];portConstraint=eastwest;rounded=0;shadow=0;html=0;" parent="l1iqNx5NcCHNy8qaXpVw-39" vertex="1">
          <mxGeometry y="112" width="200" height="26" as="geometry" />
        </mxCell>
        <mxCell id="l1iqNx5NcCHNy8qaXpVw-138" value="-Product_Id : IntegerÂ " style="text;align=left;verticalAlign=top;spacingLeft=4;spacingRight=4;overflow=hidden;rotatable=0;points=[[0,0.5],[1,0.5]];portConstraint=eastwest;" parent="l1iqNx5NcCHNy8qaXpVw-39" vertex="1">
          <mxGeometry y="138" width="200" height="26" as="geometry" />
        </mxCell>
        <mxCell id="l1iqNx5NcCHNy8qaXpVw-41" value="" style="line;strokeWidth=1;align=left;verticalAlign=middle;spacingTop=-1;spacingLeft=3;spacingRight=3;rotatable=0;labelPosition=right;points=[];portConstraint=eastwest;" parent="l1iqNx5NcCHNy8qaXpVw-39" vertex="1">
          <mxGeometry y="164" width="200" height="8" as="geometry" />
        </mxCell>
        <mxCell id="l1iqNx5NcCHNy8qaXpVw-42" value="+Display_products():void" style="text;align=left;verticalAlign=top;spacingLeft=4;spacingRight=4;overflow=hidden;rotatable=0;points=[[0,0.5],[1,0.5]];portConstraint=eastwest;" parent="l1iqNx5NcCHNy8qaXpVw-39" vertex="1">
          <mxGeometry y="172" width="200" height="26" as="geometry" />
        </mxCell>
        <mxCell id="l1iqNx5NcCHNy8qaXpVw-44" value="+Check_Premiun():void" style="text;align=left;verticalAlign=top;spacingLeft=4;spacingRight=4;overflow=hidden;rotatable=0;points=[[0,0.5],[1,0.5]];portConstraint=eastwest;" parent="l1iqNx5NcCHNy8qaXpVw-39" vertex="1">
          <mxGeometry y="198" width="200" height="26" as="geometry" />
        </mxCell>
        <mxCell id="l1iqNx5NcCHNy8qaXpVw-137" value="+Reduce_Stock() : Void&amp;nbsp;" style="text;html=1;align=left;verticalAlign=middle;resizable=0;points=[];autosize=1;strokeColor=none;fillColor=none;" parent="l1iqNx5NcCHNy8qaXpVw-39" vertex="1">
          <mxGeometry y="224" width="200" height="30" as="geometry" />
        </mxCell>
        <mxCell id="l1iqNx5NcCHNy8qaXpVw-43" value="+make_temp_basket():void" style="text;align=left;verticalAlign=top;spacingLeft=4;spacingRight=4;overflow=hidden;rotatable=0;points=[[0,0.5],[1,0.5]];portConstraint=eastwest;" parent="l1iqNx5NcCHNy8qaXpVw-39" vertex="1">
          <mxGeometry y="254" width="200" height="26" as="geometry" />
        </mxCell>
        <mxCell id="l1iqNx5NcCHNy8qaXpVw-136" value="+Search_Stock() : Void&amp;nbsp;" style="text;html=1;align=left;verticalAlign=middle;resizable=0;points=[];autosize=1;strokeColor=none;fillColor=none;" parent="l1iqNx5NcCHNy8qaXpVw-39" vertex="1">
          <mxGeometry y="280" width="200" height="30" as="geometry" />
        </mxCell>
        <mxCell id="l1iqNx5NcCHNy8qaXpVw-135" value="+Display_pending_orders() : Void" style="text;html=1;align=left;verticalAlign=middle;resizable=0;points=[];autosize=1;strokeColor=none;fillColor=none;" parent="l1iqNx5NcCHNy8qaXpVw-39" vertex="1">
          <mxGeometry y="310" width="200" height="30" as="geometry" />
        </mxCell>
        <mxCell id="l1iqNx5NcCHNy8qaXpVw-134" value="+Display_finished_orders() : Void" style="text;html=1;align=left;verticalAlign=middle;resizable=0;points=[];autosize=1;strokeColor=none;fillColor=none;" parent="l1iqNx5NcCHNy8qaXpVw-39" vertex="1">
          <mxGeometry y="340" width="200" height="30" as="geometry" />
        </mxCell>
        <mxCell id="l1iqNx5NcCHNy8qaXpVw-90" value="+Display_products():void" style="text;align=left;verticalAlign=top;spacingLeft=4;spacingRight=4;overflow=hidden;rotatable=0;points=[[0,0.5],[1,0.5]];portConstraint=eastwest;" parent="l1iqNx5NcCHNy8qaXpVw-39" vertex="1">
          <mxGeometry y="370" width="200" height="26" as="geometry" />
        </mxCell>
        <mxCell id="eqAYTbt9n-OWrJhPP6kn-1" value="+Find_altemative():void" style="text;align=left;verticalAlign=top;spacingLeft=4;spacingRight=4;overflow=hidden;rotatable=0;points=[[0,0.5],[1,0.5]];portConstraint=eastwest;" parent="l1iqNx5NcCHNy8qaXpVw-39" vertex="1">
          <mxGeometry y="396" width="200" height="26" as="geometry" />
        </mxCell>
        <mxCell id="l1iqNx5NcCHNy8qaXpVw-50" value="Favorite" style="swimlane;fontStyle=1;align=center;verticalAlign=top;childLayout=stackLayout;horizontal=1;startSize=26;horizontalStack=0;resizeParent=1;resizeParentMax=0;resizeLast=0;collapsible=1;marginBottom=0;" parent="1" vertex="1">
          <mxGeometry x="770" y="350" width="200" height="232" as="geometry">
            <mxRectangle x="470" y="-910" width="90" height="30" as="alternateBounds" />
          </mxGeometry>
        </mxCell>
        <mxCell id="l1iqNx5NcCHNy8qaXpVw-174" value="-Product_Name : String" style="text;html=1;align=left;verticalAlign=middle;resizable=0;points=[];autosize=1;strokeColor=none;fillColor=none;" parent="l1iqNx5NcCHNy8qaXpVw-50" vertex="1">
          <mxGeometry y="26" width="200" height="30" as="geometry" />
        </mxCell>
        <mxCell id="l1iqNx5NcCHNy8qaXpVw-177" value="-Product_Description : String" style="text;html=1;align=left;verticalAlign=middle;resizable=0;points=[];autosize=1;strokeColor=none;fillColor=none;" parent="l1iqNx5NcCHNy8qaXpVw-50" vertex="1">
          <mxGeometry y="56" width="200" height="30" as="geometry" />
        </mxCell>
        <mxCell id="l1iqNx5NcCHNy8qaXpVw-176" value="-Product_Price : Double" style="text;html=1;align=left;verticalAlign=middle;resizable=0;points=[];autosize=1;strokeColor=none;fillColor=none;" parent="l1iqNx5NcCHNy8qaXpVw-50" vertex="1">
          <mxGeometry y="86" width="200" height="30" as="geometry" />
        </mxCell>
        <mxCell id="l1iqNx5NcCHNy8qaXpVw-175" value="-Product_ID : Integer" style="text;html=1;align=left;verticalAlign=middle;resizable=0;points=[];autosize=1;strokeColor=none;fillColor=none;" parent="l1iqNx5NcCHNy8qaXpVw-50" vertex="1">
          <mxGeometry y="116" width="200" height="30" as="geometry" />
        </mxCell>
        <mxCell id="l1iqNx5NcCHNy8qaXpVw-51" value="-User_ID:Integer" style="text;align=left;verticalAlign=top;spacingLeft=4;spacingRight=4;overflow=hidden;rotatable=0;points=[[0,0.5],[1,0.5]];portConstraint=eastwest;" parent="l1iqNx5NcCHNy8qaXpVw-50" vertex="1">
          <mxGeometry y="146" width="200" height="26" as="geometry" />
        </mxCell>
        <mxCell id="l1iqNx5NcCHNy8qaXpVw-182" value="-Pharmacy_ID:Integer" style="text;align=left;verticalAlign=top;spacingLeft=4;spacingRight=4;overflow=hidden;rotatable=0;points=[[0,0.5],[1,0.5]];portConstraint=eastwest;" parent="l1iqNx5NcCHNy8qaXpVw-50" vertex="1">
          <mxGeometry y="172" width="200" height="26" as="geometry" />
        </mxCell>
        <mxCell id="l1iqNx5NcCHNy8qaXpVw-52" value="" style="line;strokeWidth=1;align=left;verticalAlign=middle;spacingTop=-1;spacingLeft=3;spacingRight=3;rotatable=0;labelPosition=right;points=[];portConstraint=eastwest;" parent="l1iqNx5NcCHNy8qaXpVw-50" vertex="1">
          <mxGeometry y="198" width="200" height="8" as="geometry" />
        </mxCell>
        <mxCell id="l1iqNx5NcCHNy8qaXpVw-54" value="+Display_Favorite():void" style="text;align=left;verticalAlign=top;spacingLeft=4;spacingRight=4;overflow=hidden;rotatable=0;points=[[0,0.5],[1,0.5]];portConstraint=eastwest;" parent="l1iqNx5NcCHNy8qaXpVw-50" vertex="1">
          <mxGeometry y="206" width="200" height="26" as="geometry" />
        </mxCell>
        <mxCell id="l1iqNx5NcCHNy8qaXpVw-56" value="Premium_User" style="swimlane;fontStyle=1;align=center;verticalAlign=top;childLayout=stackLayout;horizontal=1;startSize=26;horizontalStack=0;resizeParent=1;resizeParentMax=0;resizeLast=0;collapsible=1;marginBottom=0;" parent="1" vertex="1">
          <mxGeometry x="-200" y="360" width="200" height="190" as="geometry">
            <mxRectangle x="-700" y="-510" width="130" height="30" as="alternateBounds" />
          </mxGeometry>
        </mxCell>
        <mxCell id="l1iqNx5NcCHNy8qaXpVw-57" value="-Premium_User:Integer" style="text;align=left;verticalAlign=top;spacingLeft=4;spacingRight=4;overflow=hidden;rotatable=0;points=[[0,0.5],[1,0.5]];portConstraint=eastwest;" parent="l1iqNx5NcCHNy8qaXpVw-56" vertex="1">
          <mxGeometry y="26" width="200" height="26" as="geometry" />
        </mxCell>
        <mxCell id="l1iqNx5NcCHNy8qaXpVw-171" value="-User_ID:Integer" style="text;align=left;verticalAlign=top;spacingLeft=4;spacingRight=4;overflow=hidden;rotatable=0;points=[[0,0.5],[1,0.5]];portConstraint=eastwest;" parent="l1iqNx5NcCHNy8qaXpVw-56" vertex="1">
          <mxGeometry y="52" width="200" height="26" as="geometry" />
        </mxCell>
        <mxCell id="l1iqNx5NcCHNy8qaXpVw-169" value="-Points:Integer" style="text;align=left;verticalAlign=top;spacingLeft=4;spacingRight=4;overflow=hidden;rotatable=0;points=[[0,0.5],[1,0.5]];portConstraint=eastwest;" parent="l1iqNx5NcCHNy8qaXpVw-56" vertex="1">
          <mxGeometry y="78" width="200" height="26" as="geometry" />
        </mxCell>
        <mxCell id="l1iqNx5NcCHNy8qaXpVw-170" value="-Level_of_Premium_User:Integer" style="text;align=left;verticalAlign=top;spacingLeft=4;spacingRight=4;overflow=hidden;rotatable=0;points=[[0,0.5],[1,0.5]];portConstraint=eastwest;" parent="l1iqNx5NcCHNy8qaXpVw-56" vertex="1">
          <mxGeometry y="104" width="200" height="26" as="geometry" />
        </mxCell>
        <mxCell id="l1iqNx5NcCHNy8qaXpVw-58" value="" style="line;strokeWidth=1;align=left;verticalAlign=middle;spacingTop=-1;spacingLeft=3;spacingRight=3;rotatable=0;labelPosition=right;points=[];portConstraint=eastwest;" parent="l1iqNx5NcCHNy8qaXpVw-56" vertex="1">
          <mxGeometry y="130" width="200" height="8" as="geometry" />
        </mxCell>
        <mxCell id="l1iqNx5NcCHNy8qaXpVw-59" value="+ask_for_interest():boolean" style="text;align=left;verticalAlign=top;spacingLeft=4;spacingRight=4;overflow=hidden;rotatable=0;points=[[0,0.5],[1,0.5]];portConstraint=eastwest;" parent="l1iqNx5NcCHNy8qaXpVw-56" vertex="1">
          <mxGeometry y="138" width="200" height="26" as="geometry" />
        </mxCell>
        <mxCell id="l1iqNx5NcCHNy8qaXpVw-172" value="+viewLevel():void" style="text;align=left;verticalAlign=top;spacingLeft=4;spacingRight=4;overflow=hidden;rotatable=0;points=[[0,0.5],[1,0.5]];portConstraint=eastwest;" parent="l1iqNx5NcCHNy8qaXpVw-56" vertex="1">
          <mxGeometry y="164" width="200" height="26" as="geometry" />
        </mxCell>
        <mxCell id="l1iqNx5NcCHNy8qaXpVw-60" value="Pharmacy User" style="swimlane;fontStyle=1;align=center;verticalAlign=top;childLayout=stackLayout;horizontal=1;startSize=26;horizontalStack=0;resizeParent=1;resizeParentMax=0;resizeLast=0;collapsible=1;marginBottom=0;" parent="1" vertex="1">
          <mxGeometry x="140" y="-1450" width="320" height="396" as="geometry">
            <mxRectangle x="-285" y="-516" width="130" height="30" as="alternateBounds" />
          </mxGeometry>
        </mxCell>
        <mxCell id="l1iqNx5NcCHNy8qaXpVw-61" value="-Pharmacy_ID:Integer" style="text;align=left;verticalAlign=top;spacingLeft=4;spacingRight=4;overflow=hidden;rotatable=0;points=[[0,0.5],[1,0.5]];portConstraint=eastwest;" parent="l1iqNx5NcCHNy8qaXpVw-60" vertex="1">
          <mxGeometry y="26" width="320" height="26" as="geometry" />
        </mxCell>
        <mxCell id="l1iqNx5NcCHNy8qaXpVw-184" value="-Username : String" style="text;html=1;align=left;verticalAlign=middle;resizable=0;points=[];autosize=1;strokeColor=none;fillColor=none;" parent="l1iqNx5NcCHNy8qaXpVw-60" vertex="1">
          <mxGeometry y="52" width="320" height="30" as="geometry" />
        </mxCell>
        <mxCell id="l1iqNx5NcCHNy8qaXpVw-186" value="-Email : String" style="text;html=1;align=left;verticalAlign=middle;resizable=0;points=[];autosize=1;strokeColor=none;fillColor=none;" parent="l1iqNx5NcCHNy8qaXpVw-60" vertex="1">
          <mxGeometry y="82" width="320" height="30" as="geometry" />
        </mxCell>
        <mxCell id="l1iqNx5NcCHNy8qaXpVw-188" value="-Address : String" style="text;html=1;align=left;verticalAlign=middle;resizable=0;points=[];autosize=1;strokeColor=none;fillColor=none;" parent="l1iqNx5NcCHNy8qaXpVw-60" vertex="1">
          <mxGeometry y="112" width="320" height="30" as="geometry" />
        </mxCell>
        <mxCell id="l1iqNx5NcCHNy8qaXpVw-187" value="-Phone_Number : String&amp;nbsp;" style="text;html=1;align=left;verticalAlign=middle;resizable=0;points=[];autosize=1;strokeColor=none;fillColor=none;" parent="l1iqNx5NcCHNy8qaXpVw-60" vertex="1">
          <mxGeometry y="142" width="320" height="30" as="geometry" />
        </mxCell>
        <mxCell id="l1iqNx5NcCHNy8qaXpVw-185" value="-Password : String" style="text;html=1;align=left;verticalAlign=middle;resizable=0;points=[];autosize=1;strokeColor=none;fillColor=none;" parent="l1iqNx5NcCHNy8qaXpVw-60" vertex="1">
          <mxGeometry y="172" width="320" height="30" as="geometry" />
        </mxCell>
        <mxCell id="l1iqNx5NcCHNy8qaXpVw-183" value="-Pharmacy_Name : String&amp;nbsp;" style="text;html=1;align=left;verticalAlign=middle;resizable=0;points=[];autosize=1;strokeColor=none;fillColor=none;" parent="l1iqNx5NcCHNy8qaXpVw-60" vertex="1">
          <mxGeometry y="202" width="320" height="30" as="geometry" />
        </mxCell>
        <mxCell id="l1iqNx5NcCHNy8qaXpVw-62" value="" style="line;strokeWidth=1;align=left;verticalAlign=middle;spacingTop=-1;spacingLeft=3;spacingRight=3;rotatable=0;labelPosition=right;points=[];portConstraint=eastwest;" parent="l1iqNx5NcCHNy8qaXpVw-60" vertex="1">
          <mxGeometry y="232" width="320" height="8" as="geometry" />
        </mxCell>
        <mxCell id="l1iqNx5NcCHNy8qaXpVw-63" value="+Search_inventory():Void" style="text;align=left;verticalAlign=top;spacingLeft=4;spacingRight=4;overflow=hidden;rotatable=0;points=[[0,0.5],[1,0.5]];portConstraint=eastwest;" parent="l1iqNx5NcCHNy8qaXpVw-60" vertex="1">
          <mxGeometry y="240" width="320" height="26" as="geometry" />
        </mxCell>
        <mxCell id="l1iqNx5NcCHNy8qaXpVw-101" value="+search_Pharmacies():Void" style="text;align=left;verticalAlign=top;spacingLeft=4;spacingRight=4;overflow=hidden;rotatable=0;points=[[0,0.5],[1,0.5]];portConstraint=eastwest;" parent="l1iqNx5NcCHNy8qaXpVw-60" vertex="1">
          <mxGeometry y="266" width="320" height="26" as="geometry" />
        </mxCell>
        <mxCell id="l1iqNx5NcCHNy8qaXpVw-64" value="+Display_Pharmacies():Void" style="text;align=left;verticalAlign=top;spacingLeft=4;spacingRight=4;overflow=hidden;rotatable=0;points=[[0,0.5],[1,0.5]];portConstraint=eastwest;" parent="l1iqNx5NcCHNy8qaXpVw-60" vertex="1">
          <mxGeometry y="292" width="320" height="26" as="geometry" />
        </mxCell>
        <mxCell id="l1iqNx5NcCHNy8qaXpVw-74" value="+add_to_cart():Void" style="text;align=left;verticalAlign=top;spacingLeft=4;spacingRight=4;overflow=hidden;rotatable=0;points=[[0,0.5],[1,0.5]];portConstraint=eastwest;" parent="l1iqNx5NcCHNy8qaXpVw-60" vertex="1">
          <mxGeometry y="318" width="320" height="26" as="geometry" />
        </mxCell>
        <mxCell id="l1iqNx5NcCHNy8qaXpVw-189" value="+View_Offer():Void" style="text;align=left;verticalAlign=top;spacingLeft=4;spacingRight=4;overflow=hidden;rotatable=0;points=[[0,0.5],[1,0.5]];portConstraint=eastwest;" parent="l1iqNx5NcCHNy8qaXpVw-60" vertex="1">
          <mxGeometry y="344" width="320" height="26" as="geometry" />
        </mxCell>
        <mxCell id="l1iqNx5NcCHNy8qaXpVw-191" value="+Create_Offer():String" style="text;align=left;verticalAlign=top;spacingLeft=4;spacingRight=4;overflow=hidden;rotatable=0;points=[[0,0.5],[1,0.5]];portConstraint=eastwest;" parent="l1iqNx5NcCHNy8qaXpVw-60" vertex="1">
          <mxGeometry y="370" width="320" height="26" as="geometry" />
        </mxCell>
        <mxCell id="l1iqNx5NcCHNy8qaXpVw-65" value="Inventory" style="swimlane;fontStyle=1;align=center;verticalAlign=top;childLayout=stackLayout;horizontal=1;startSize=26;horizontalStack=0;resizeParent=1;resizeParentMax=0;resizeLast=0;collapsible=1;marginBottom=0;" parent="1" vertex="1">
          <mxGeometry x="190" y="-950" width="200" height="386" as="geometry">
            <mxRectangle x="900" y="-490" width="90" height="30" as="alternateBounds" />
          </mxGeometry>
        </mxCell>
        <mxCell id="l1iqNx5NcCHNy8qaXpVw-163" value="-Pharmacy_ID : Integer" style="text;html=1;align=left;verticalAlign=middle;resizable=0;points=[];autosize=1;strokeColor=none;fillColor=none;" parent="l1iqNx5NcCHNy8qaXpVw-65" vertex="1">
          <mxGeometry y="26" width="200" height="30" as="geometry" />
        </mxCell>
        <mxCell id="l1iqNx5NcCHNy8qaXpVw-164" value="-Pharmacy_Name: String" style="text;html=1;align=left;verticalAlign=middle;resizable=0;points=[];autosize=1;strokeColor=none;fillColor=none;" parent="l1iqNx5NcCHNy8qaXpVw-65" vertex="1">
          <mxGeometry y="56" width="200" height="30" as="geometry" />
        </mxCell>
        <mxCell id="l1iqNx5NcCHNy8qaXpVw-165" value="-Product_ID : IntegerÂ " style="text;align=left;verticalAlign=top;spacingLeft=4;spacingRight=4;overflow=hidden;rotatable=0;points=[[0,0.5],[1,0.5]];portConstraint=eastwest;" parent="l1iqNx5NcCHNy8qaXpVw-65" vertex="1">
          <mxGeometry y="86" width="200" height="26" as="geometry" />
        </mxCell>
        <mxCell id="l1iqNx5NcCHNy8qaXpVw-166" value="-Product_Amount : Integer" style="text;align=left;verticalAlign=top;spacingLeft=4;spacingRight=4;overflow=hidden;rotatable=0;points=[[0,0.5],[1,0.5]];portConstraint=eastwest;rounded=0;shadow=0;html=0;" parent="l1iqNx5NcCHNy8qaXpVw-65" vertex="1">
          <mxGeometry y="112" width="200" height="26" as="geometry" />
        </mxCell>
        <mxCell id="l1iqNx5NcCHNy8qaXpVw-67" value="" style="line;strokeWidth=1;align=left;verticalAlign=middle;spacingTop=-1;spacingLeft=3;spacingRight=3;rotatable=0;labelPosition=right;points=[];portConstraint=eastwest;" parent="l1iqNx5NcCHNy8qaXpVw-65" vertex="1">
          <mxGeometry y="138" width="200" height="8" as="geometry" />
        </mxCell>
        <mxCell id="l1iqNx5NcCHNy8qaXpVw-66" value="+Search_InStock_Product():Void" style="text;align=left;verticalAlign=top;spacingLeft=4;spacingRight=4;overflow=hidden;rotatable=0;points=[[0,0.5],[1,0.5]];portConstraint=eastwest;" parent="l1iqNx5NcCHNy8qaXpVw-65" vertex="1">
          <mxGeometry y="146" width="200" height="20" as="geometry" />
        </mxCell>
        <mxCell id="l1iqNx5NcCHNy8qaXpVw-107" value="+Display_Products():Void" style="text;align=left;verticalAlign=top;spacingLeft=4;spacingRight=4;overflow=hidden;rotatable=0;points=[[0,0.5],[1,0.5]];portConstraint=eastwest;" parent="l1iqNx5NcCHNy8qaXpVw-65" vertex="1">
          <mxGeometry y="166" width="200" height="26" as="geometry" />
        </mxCell>
        <mxCell id="l1iqNx5NcCHNy8qaXpVw-108" value="+Change_Price():Double" style="text;align=left;verticalAlign=top;spacingLeft=4;spacingRight=4;overflow=hidden;rotatable=0;points=[[0,0.5],[1,0.5]];portConstraint=eastwest;" parent="l1iqNx5NcCHNy8qaXpVw-65" vertex="1">
          <mxGeometry y="192" width="200" height="26" as="geometry" />
        </mxCell>
        <mxCell id="l1iqNx5NcCHNy8qaXpVw-113" value="+Search_Premium_Users():Void" style="text;align=left;verticalAlign=top;spacingLeft=4;spacingRight=4;overflow=hidden;rotatable=0;points=[[0,0.5],[1,0.5]];portConstraint=eastwest;" parent="l1iqNx5NcCHNy8qaXpVw-65" vertex="1">
          <mxGeometry y="218" width="200" height="26" as="geometry" />
        </mxCell>
        <mxCell id="l1iqNx5NcCHNy8qaXpVw-114" value="+Notify_Premium():Void" style="text;align=left;verticalAlign=top;spacingLeft=4;spacingRight=4;overflow=hidden;rotatable=0;points=[[0,0.5],[1,0.5]];portConstraint=eastwest;" parent="l1iqNx5NcCHNy8qaXpVw-65" vertex="1">
          <mxGeometry y="244" width="200" height="22" as="geometry" />
        </mxCell>
        <mxCell id="l1iqNx5NcCHNy8qaXpVw-159" value="+Add_product_to_offer() : Void" style="text;html=1;align=left;verticalAlign=middle;resizable=0;points=[];autosize=1;strokeColor=none;fillColor=none;" parent="l1iqNx5NcCHNy8qaXpVw-65" vertex="1">
          <mxGeometry y="266" width="200" height="30" as="geometry" />
        </mxCell>
        <mxCell id="l1iqNx5NcCHNy8qaXpVw-160" value="+Display_Products() : Void" style="text;html=1;align=left;verticalAlign=middle;resizable=0;points=[];autosize=1;strokeColor=none;fillColor=none;" parent="l1iqNx5NcCHNy8qaXpVw-65" vertex="1">
          <mxGeometry y="296" width="200" height="30" as="geometry" />
        </mxCell>
        <mxCell id="l1iqNx5NcCHNy8qaXpVw-162" value="+Display_ready_order() : Void" style="text;html=1;align=left;verticalAlign=middle;resizable=0;points=[];autosize=1;strokeColor=none;fillColor=none;" parent="l1iqNx5NcCHNy8qaXpVw-65" vertex="1">
          <mxGeometry y="326" width="200" height="30" as="geometry" />
        </mxCell>
        <mxCell id="l1iqNx5NcCHNy8qaXpVw-161" value="+Display_out_of_stock() : Void" style="text;html=1;align=left;verticalAlign=middle;resizable=0;points=[];autosize=1;strokeColor=none;fillColor=none;" parent="l1iqNx5NcCHNy8qaXpVw-65" vertex="1">
          <mxGeometry y="356" width="200" height="30" as="geometry" />
        </mxCell>
        <mxCell id="l1iqNx5NcCHNy8qaXpVw-70" value="Cart" style="swimlane;fontStyle=1;align=center;verticalAlign=top;childLayout=stackLayout;horizontal=1;startSize=26;horizontalStack=0;resizeParent=1;resizeParentMax=0;resizeLast=0;collapsible=1;marginBottom=0;" parent="1" vertex="1">
          <mxGeometry x="-130" y="-286" width="200" height="250" as="geometry">
            <mxRectangle x="-570" y="-520" width="60" height="30" as="alternateBounds" />
          </mxGeometry>
        </mxCell>
        <mxCell id="l1iqNx5NcCHNy8qaXpVw-167" value="-Product_ID:Integer" style="text;align=left;verticalAlign=top;spacingLeft=4;spacingRight=4;overflow=hidden;rotatable=0;points=[[0,0.5],[1,0.5]];portConstraint=eastwest;" parent="l1iqNx5NcCHNy8qaXpVw-70" vertex="1">
          <mxGeometry y="26" width="200" height="26" as="geometry" />
        </mxCell>
        <mxCell id="l1iqNx5NcCHNy8qaXpVw-168" value="-User_ID:Integer" style="text;align=left;verticalAlign=top;spacingLeft=4;spacingRight=4;overflow=hidden;rotatable=0;points=[[0,0.5],[1,0.5]];portConstraint=eastwest;" parent="l1iqNx5NcCHNy8qaXpVw-70" vertex="1">
          <mxGeometry y="52" width="200" height="28" as="geometry" />
        </mxCell>
        <mxCell id="l1iqNx5NcCHNy8qaXpVw-71" value="-Sum:Double" style="text;align=left;verticalAlign=top;spacingLeft=4;spacingRight=4;overflow=hidden;rotatable=0;points=[[0,0.5],[1,0.5]];portConstraint=eastwest;" parent="l1iqNx5NcCHNy8qaXpVw-70" vertex="1">
          <mxGeometry y="80" width="200" height="26" as="geometry" />
        </mxCell>
        <mxCell id="l1iqNx5NcCHNy8qaXpVw-72" value="" style="line;strokeWidth=1;align=left;verticalAlign=middle;spacingTop=-1;spacingLeft=3;spacingRight=3;rotatable=0;labelPosition=right;points=[];portConstraint=eastwest;" parent="l1iqNx5NcCHNy8qaXpVw-70" vertex="1">
          <mxGeometry y="106" width="200" height="8" as="geometry" />
        </mxCell>
        <mxCell id="l1iqNx5NcCHNy8qaXpVw-73" value="+Display_Cart():void" style="text;align=left;verticalAlign=top;spacingLeft=4;spacingRight=4;overflow=hidden;rotatable=0;points=[[0,0.5],[1,0.5]];portConstraint=eastwest;" parent="l1iqNx5NcCHNy8qaXpVw-70" vertex="1">
          <mxGeometry y="114" width="200" height="26" as="geometry" />
        </mxCell>
        <mxCell id="eqAYTbt9n-OWrJhPP6kn-3" value="+Display_Buy_more():void" style="text;align=left;verticalAlign=top;spacingLeft=4;spacingRight=4;overflow=hidden;rotatable=0;points=[[0,0.5],[1,0.5]];portConstraint=eastwest;" parent="l1iqNx5NcCHNy8qaXpVw-70" vertex="1">
          <mxGeometry y="140" width="200" height="26" as="geometry" />
        </mxCell>
        <mxCell id="l1iqNx5NcCHNy8qaXpVw-81" value="+Total_Sum():Double" style="text;align=left;verticalAlign=top;spacingLeft=4;spacingRight=4;overflow=hidden;rotatable=0;points=[[0,0.5],[1,0.5]];portConstraint=eastwest;" parent="l1iqNx5NcCHNy8qaXpVw-70" vertex="1">
          <mxGeometry y="166" width="200" height="26" as="geometry" />
        </mxCell>
        <mxCell id="l1iqNx5NcCHNy8qaXpVw-96" value="+Add_to_Basket():void" style="text;align=left;verticalAlign=top;spacingLeft=4;spacingRight=4;overflow=hidden;rotatable=0;points=[[0,0.5],[1,0.5]];portConstraint=eastwest;" parent="l1iqNx5NcCHNy8qaXpVw-70" vertex="1">
          <mxGeometry y="192" width="200" height="26" as="geometry" />
        </mxCell>
        <mxCell id="l1iqNx5NcCHNy8qaXpVw-103" value="+Place_Order():void" style="text;align=left;verticalAlign=top;spacingLeft=4;spacingRight=4;overflow=hidden;rotatable=0;points=[[0,0.5],[1,0.5]];portConstraint=eastwest;" parent="l1iqNx5NcCHNy8qaXpVw-70" vertex="1">
          <mxGeometry y="218" width="200" height="32" as="geometry" />
        </mxCell>
        <mxCell id="l1iqNx5NcCHNy8qaXpVw-75" value="Orders" style="swimlane;fontStyle=1;align=center;verticalAlign=top;childLayout=stackLayout;horizontal=1;startSize=26;horizontalStack=0;resizeParent=1;resizeParentMax=0;resizeLast=0;collapsible=1;marginBottom=0;" parent="1" vertex="1">
          <mxGeometry x="-340" y="-860" width="200" height="344" as="geometry">
            <mxRectangle x="610" y="-600" width="80" height="30" as="alternateBounds" />
          </mxGeometry>
        </mxCell>
        <mxCell id="l1iqNx5NcCHNy8qaXpVw-116" value="-Pharmacy_Id() : Integer" style="text;align=left;verticalAlign=top;spacingLeft=4;spacingRight=4;overflow=hidden;rotatable=0;points=[[0,0.5],[1,0.5]];portConstraint=eastwest;rounded=0;shadow=0;html=0;" parent="l1iqNx5NcCHNy8qaXpVw-75" vertex="1">
          <mxGeometry y="26" width="200" height="26" as="geometry" />
        </mxCell>
        <mxCell id="l1iqNx5NcCHNy8qaXpVw-117" value="-User_Id : Integer" style="text;html=1;align=left;verticalAlign=middle;resizable=0;points=[];autosize=1;strokeColor=none;fillColor=none;" parent="l1iqNx5NcCHNy8qaXpVw-75" vertex="1">
          <mxGeometry y="52" width="200" height="30" as="geometry" />
        </mxCell>
        <mxCell id="l1iqNx5NcCHNy8qaXpVw-118" value="-Order_Id : Integer" style="text;html=1;align=left;verticalAlign=middle;resizable=0;points=[];autosize=1;strokeColor=none;fillColor=none;" parent="l1iqNx5NcCHNy8qaXpVw-75" vertex="1">
          <mxGeometry y="82" width="200" height="30" as="geometry" />
        </mxCell>
        <mxCell id="l1iqNx5NcCHNy8qaXpVw-119" value="-Product_Id : Integer" style="text;html=1;align=left;verticalAlign=middle;resizable=0;points=[];autosize=1;strokeColor=none;fillColor=none;" parent="l1iqNx5NcCHNy8qaXpVw-75" vertex="1">
          <mxGeometry y="112" width="200" height="30" as="geometry" />
        </mxCell>
        <mxCell id="l1iqNx5NcCHNy8qaXpVw-120" value="-Product_Name : String" style="text;html=1;align=left;verticalAlign=middle;resizable=0;points=[];autosize=1;strokeColor=none;fillColor=none;" parent="l1iqNx5NcCHNy8qaXpVw-75" vertex="1">
          <mxGeometry y="142" width="200" height="30" as="geometry" />
        </mxCell>
        <mxCell id="l1iqNx5NcCHNy8qaXpVw-121" value="-Product_Amount : Integer" style="text;html=1;align=left;verticalAlign=middle;resizable=0;points=[];autosize=1;strokeColor=none;fillColor=none;" parent="l1iqNx5NcCHNy8qaXpVw-75" vertex="1">
          <mxGeometry y="172" width="200" height="30" as="geometry" />
        </mxCell>
        <mxCell id="l1iqNx5NcCHNy8qaXpVw-122" value="-Product_Description : String" style="text;html=1;align=left;verticalAlign=middle;resizable=0;points=[];autosize=1;strokeColor=none;fillColor=none;" parent="l1iqNx5NcCHNy8qaXpVw-75" vertex="1">
          <mxGeometry y="202" width="200" height="30" as="geometry" />
        </mxCell>
        <mxCell id="l1iqNx5NcCHNy8qaXpVw-77" value="" style="line;strokeWidth=1;align=left;verticalAlign=middle;spacingTop=-1;spacingLeft=3;spacingRight=3;rotatable=0;labelPosition=right;points=[];portConstraint=eastwest;" parent="l1iqNx5NcCHNy8qaXpVw-75" vertex="1">
          <mxGeometry y="232" width="200" height="8" as="geometry" />
        </mxCell>
        <mxCell id="l1iqNx5NcCHNy8qaXpVw-76" value="+Place_Order():void" style="text;align=left;verticalAlign=top;spacingLeft=4;spacingRight=4;overflow=hidden;rotatable=0;points=[[0,0.5],[1,0.5]];portConstraint=eastwest;" parent="l1iqNx5NcCHNy8qaXpVw-75" vertex="1">
          <mxGeometry y="240" width="200" height="26" as="geometry" />
        </mxCell>
        <mxCell id="l1iqNx5NcCHNy8qaXpVw-109" value="+Get_Sales()Void" style="text;align=left;verticalAlign=top;spacingLeft=4;spacingRight=4;overflow=hidden;rotatable=0;points=[[0,0.5],[1,0.5]];portConstraint=eastwest;" parent="l1iqNx5NcCHNy8qaXpVw-75" vertex="1">
          <mxGeometry y="266" width="200" height="26" as="geometry" />
        </mxCell>
        <mxCell id="l1iqNx5NcCHNy8qaXpVw-110" value="+Display_Sales():void" style="text;align=left;verticalAlign=top;spacingLeft=4;spacingRight=4;overflow=hidden;rotatable=0;points=[[0,0.5],[1,0.5]];portConstraint=eastwest;" parent="l1iqNx5NcCHNy8qaXpVw-75" vertex="1">
          <mxGeometry y="292" width="200" height="26" as="geometry" />
        </mxCell>
        <mxCell id="l1iqNx5NcCHNy8qaXpVw-111" value="+Get_Sum_outofstrock():Integer" style="text;align=left;verticalAlign=top;spacingLeft=4;spacingRight=4;overflow=hidden;rotatable=0;points=[[0,0.5],[1,0.5]];portConstraint=eastwest;" parent="l1iqNx5NcCHNy8qaXpVw-75" vertex="1">
          <mxGeometry y="318" width="200" height="26" as="geometry" />
        </mxCell>
        <mxCell id="l1iqNx5NcCHNy8qaXpVw-91" value="Temp_Cart" style="swimlane;fontStyle=1;align=center;verticalAlign=top;childLayout=stackLayout;horizontal=1;startSize=26;horizontalStack=0;resizeParent=1;resizeParentMax=0;resizeLast=0;collapsible=1;marginBottom=0;" parent="1" vertex="1">
          <mxGeometry x="-625" y="-286" width="200" height="250" as="geometry">
            <mxRectangle x="-790" y="-520" width="100" height="30" as="alternateBounds" />
          </mxGeometry>
        </mxCell>
        <mxCell id="9RGXpwB4oHRjQe0waj22-2" value="-Pharmacy_Id : Integer" style="text;html=1;align=left;verticalAlign=middle;resizable=0;points=[];autosize=1;strokeColor=none;fillColor=none;" parent="l1iqNx5NcCHNy8qaXpVw-91" vertex="1">
          <mxGeometry y="26" width="200" height="30" as="geometry" />
        </mxCell>
        <mxCell id="9RGXpwB4oHRjQe0waj22-3" value="-Product_Price : Double&amp;nbsp;" style="text;html=1;align=left;verticalAlign=middle;resizable=0;points=[];autosize=1;strokeColor=none;fillColor=none;" parent="l1iqNx5NcCHNy8qaXpVw-91" vertex="1">
          <mxGeometry y="56" width="200" height="30" as="geometry" />
        </mxCell>
        <mxCell id="9RGXpwB4oHRjQe0waj22-6" value="-Product_Id : IntegerÂ " style="text;align=left;verticalAlign=top;spacingLeft=4;spacingRight=4;overflow=hidden;rotatable=0;points=[[0,0.5],[1,0.5]];portConstraint=eastwest;" parent="l1iqNx5NcCHNy8qaXpVw-91" vertex="1">
          <mxGeometry y="86" width="200" height="26" as="geometry" />
        </mxCell>
        <mxCell id="9RGXpwB4oHRjQe0waj22-5" value="-Product_Name : String" style="text;align=left;verticalAlign=top;spacingLeft=4;spacingRight=4;overflow=hidden;rotatable=0;points=[[0,0.5],[1,0.5]];portConstraint=eastwest;rounded=0;shadow=0;html=0;" parent="l1iqNx5NcCHNy8qaXpVw-91" vertex="1">
          <mxGeometry y="112" width="200" height="26" as="geometry" />
        </mxCell>
        <mxCell id="9RGXpwB4oHRjQe0waj22-4" value="-Product_Amount : Integer" style="text;align=left;verticalAlign=top;spacingLeft=4;spacingRight=4;overflow=hidden;rotatable=0;points=[[0,0.5],[1,0.5]];portConstraint=eastwest;rounded=0;shadow=0;html=0;" parent="l1iqNx5NcCHNy8qaXpVw-91" vertex="1">
          <mxGeometry y="138" width="200" height="26" as="geometry" />
        </mxCell>
        <mxCell id="l1iqNx5NcCHNy8qaXpVw-93" value="" style="line;strokeWidth=1;align=left;verticalAlign=middle;spacingTop=-1;spacingLeft=3;spacingRight=3;rotatable=0;labelPosition=right;points=[];portConstraint=eastwest;" parent="l1iqNx5NcCHNy8qaXpVw-91" vertex="1">
          <mxGeometry y="164" width="200" height="8" as="geometry" />
        </mxCell>
        <mxCell id="l1iqNx5NcCHNy8qaXpVw-94" value="+find_pharmacies():void" style="text;align=left;verticalAlign=top;spacingLeft=4;spacingRight=4;overflow=hidden;rotatable=0;points=[[0,0.5],[1,0.5]];portConstraint=eastwest;" parent="l1iqNx5NcCHNy8qaXpVw-91" vertex="1">
          <mxGeometry y="172" width="200" height="26" as="geometry" />
        </mxCell>
        <mxCell id="l1iqNx5NcCHNy8qaXpVw-97" value="+Total_sum():Int" style="text;align=left;verticalAlign=top;spacingLeft=4;spacingRight=4;overflow=hidden;rotatable=0;points=[[0,0.5],[1,0.5]];portConstraint=eastwest;" parent="l1iqNx5NcCHNy8qaXpVw-91" vertex="1">
          <mxGeometry y="198" width="200" height="26" as="geometry" />
        </mxCell>
        <mxCell id="l1iqNx5NcCHNy8qaXpVw-95" value="+Get_Price():Double" style="text;align=left;verticalAlign=top;spacingLeft=4;spacingRight=4;overflow=hidden;rotatable=0;points=[[0,0.5],[1,0.5]];portConstraint=eastwest;" parent="l1iqNx5NcCHNy8qaXpVw-91" vertex="1">
          <mxGeometry y="224" width="200" height="26" as="geometry" />
        </mxCell>
        <mxCell id="l1iqNx5NcCHNy8qaXpVw-123" value="Offer" style="swimlane;fontStyle=1;align=center;verticalAlign=top;childLayout=stackLayout;horizontal=1;startSize=26;horizontalStack=0;resizeParent=1;resizeLast=0;collapsible=1;marginBottom=0;rounded=0;shadow=0;strokeWidth=1;" parent="1" vertex="1">
          <mxGeometry x="710" y="-620" width="200" height="310" as="geometry">
            <mxRectangle x="990" y="40" width="160" height="26" as="alternateBounds" />
          </mxGeometry>
        </mxCell>
        <mxCell id="l1iqNx5NcCHNy8qaXpVw-124" value="-Product_Id : Integer" style="text;html=1;align=left;verticalAlign=middle;resizable=0;points=[];autosize=1;strokeColor=none;fillColor=none;" parent="l1iqNx5NcCHNy8qaXpVw-123" vertex="1">
          <mxGeometry y="26" width="200" height="30" as="geometry" />
        </mxCell>
        <mxCell id="l1iqNx5NcCHNy8qaXpVw-125" value="-Product_Name : String" style="text;html=1;align=left;verticalAlign=middle;resizable=0;points=[];autosize=1;strokeColor=none;fillColor=none;" parent="l1iqNx5NcCHNy8qaXpVw-123" vertex="1">
          <mxGeometry y="56" width="200" height="30" as="geometry" />
        </mxCell>
        <mxCell id="l1iqNx5NcCHNy8qaXpVw-126" value="-Product_Amount : Integer" style="text;html=1;align=left;verticalAlign=middle;resizable=0;points=[];autosize=1;strokeColor=none;fillColor=none;" parent="l1iqNx5NcCHNy8qaXpVw-123" vertex="1">
          <mxGeometry y="86" width="200" height="30" as="geometry" />
        </mxCell>
        <mxCell id="l1iqNx5NcCHNy8qaXpVw-127" value="-Product_Description : String" style="text;html=1;align=left;verticalAlign=middle;resizable=0;points=[];autosize=1;strokeColor=none;fillColor=none;" parent="l1iqNx5NcCHNy8qaXpVw-123" vertex="1">
          <mxGeometry y="116" width="200" height="30" as="geometry" />
        </mxCell>
        <mxCell id="l1iqNx5NcCHNy8qaXpVw-128" value="-Product_Price : Double" style="text;html=1;align=left;verticalAlign=middle;resizable=0;points=[];autosize=1;strokeColor=none;fillColor=none;" parent="l1iqNx5NcCHNy8qaXpVw-123" vertex="1">
          <mxGeometry y="146" width="200" height="30" as="geometry" />
        </mxCell>
        <mxCell id="l1iqNx5NcCHNy8qaXpVw-129" value="-Product_New_Price : Double&amp;nbsp;" style="text;html=1;align=left;verticalAlign=middle;resizable=0;points=[];autosize=1;strokeColor=none;fillColor=none;" parent="l1iqNx5NcCHNy8qaXpVw-123" vertex="1">
          <mxGeometry y="176" width="200" height="30" as="geometry" />
        </mxCell>
        <mxCell id="l1iqNx5NcCHNy8qaXpVw-130" value="" style="line;html=1;strokeWidth=1;align=left;verticalAlign=middle;spacingTop=-1;spacingLeft=3;spacingRight=3;rotatable=0;labelPosition=right;points=[];portConstraint=eastwest;" parent="l1iqNx5NcCHNy8qaXpVw-123" vertex="1">
          <mxGeometry y="206" width="200" height="14" as="geometry" />
        </mxCell>
        <mxCell id="l1iqNx5NcCHNy8qaXpVw-131" value="+Display_description_offer() : Void" style="text;html=1;align=left;verticalAlign=middle;resizable=0;points=[];autosize=1;strokeColor=none;fillColor=none;" parent="l1iqNx5NcCHNy8qaXpVw-123" vertex="1">
          <mxGeometry y="220" width="200" height="30" as="geometry" />
        </mxCell>
        <mxCell id="l1iqNx5NcCHNy8qaXpVw-132" value="+Place_Offer() : Void" style="text;html=1;align=left;verticalAlign=middle;resizable=0;points=[];autosize=1;strokeColor=none;fillColor=none;" parent="l1iqNx5NcCHNy8qaXpVw-123" vertex="1">
          <mxGeometry y="250" width="200" height="30" as="geometry" />
        </mxCell>
        <mxCell id="l1iqNx5NcCHNy8qaXpVw-133" value="+Display_add_More () : Void" style="text;html=1;align=left;verticalAlign=middle;resizable=0;points=[];autosize=1;strokeColor=none;fillColor=none;" parent="l1iqNx5NcCHNy8qaXpVw-123" vertex="1">
          <mxGeometry y="280" width="200" height="30" as="geometry" />
        </mxCell>
        <mxCell id="l1iqNx5NcCHNy8qaXpVw-143" value="Points" style="swimlane;fontStyle=1;align=center;verticalAlign=top;childLayout=stackLayout;horizontal=1;startSize=26;horizontalStack=0;resizeParent=1;resizeLast=0;collapsible=1;marginBottom=0;rounded=0;shadow=0;strokeWidth=1;" parent="1" vertex="1">
          <mxGeometry x="-510" y="270" width="210" height="326" as="geometry">
            <mxRectangle x="-230" y="5" width="160" height="26" as="alternateBounds" />
          </mxGeometry>
        </mxCell>
        <mxCell id="l1iqNx5NcCHNy8qaXpVw-151" value="-User_ID:Integer" style="text;align=left;verticalAlign=top;spacingLeft=4;spacingRight=4;overflow=hidden;rotatable=0;points=[[0,0.5],[1,0.5]];portConstraint=eastwest;" parent="l1iqNx5NcCHNy8qaXpVw-143" vertex="1">
          <mxGeometry y="26" width="210" height="26" as="geometry" />
        </mxCell>
        <mxCell id="l1iqNx5NcCHNy8qaXpVw-154" value="-Level:Integer" style="text;align=left;verticalAlign=top;spacingLeft=4;spacingRight=4;overflow=hidden;rotatable=0;points=[[0,0.5],[1,0.5]];portConstraint=eastwest;" parent="l1iqNx5NcCHNy8qaXpVw-143" vertex="1">
          <mxGeometry y="52" width="210" height="26" as="geometry" />
        </mxCell>
        <mxCell id="l1iqNx5NcCHNy8qaXpVw-156" value="-Points: Integer" style="text;align=left;verticalAlign=top;spacingLeft=4;spacingRight=4;overflow=hidden;rotatable=0;points=[[0,0.5],[1,0.5]];portConstraint=eastwest;" parent="l1iqNx5NcCHNy8qaXpVw-143" vertex="1">
          <mxGeometry y="78" width="210" height="26" as="geometry" />
        </mxCell>
        <mxCell id="l1iqNx5NcCHNy8qaXpVw-157" value="-Order_ID:Integer" style="text;align=left;verticalAlign=top;spacingLeft=4;spacingRight=4;overflow=hidden;rotatable=0;points=[[0,0.5],[1,0.5]];portConstraint=eastwest;" parent="l1iqNx5NcCHNy8qaXpVw-143" vertex="1">
          <mxGeometry y="104" width="210" height="26" as="geometry" />
        </mxCell>
        <mxCell id="l1iqNx5NcCHNy8qaXpVw-158" value="-Pharmacy_ID:Integer" style="text;align=left;verticalAlign=top;spacingLeft=4;spacingRight=4;overflow=hidden;rotatable=0;points=[[0,0.5],[1,0.5]];portConstraint=eastwest;" parent="l1iqNx5NcCHNy8qaXpVw-143" vertex="1">
          <mxGeometry y="130" width="210" height="26" as="geometry" />
        </mxCell>
        <mxCell id="l1iqNx5NcCHNy8qaXpVw-145" value="" style="line;html=1;strokeWidth=1;align=left;verticalAlign=middle;spacingTop=-1;spacingLeft=3;spacingRight=3;rotatable=0;labelPosition=right;points=[];portConstraint=eastwest;" parent="l1iqNx5NcCHNy8qaXpVw-143" vertex="1">
          <mxGeometry y="156" width="210" height="28" as="geometry" />
        </mxCell>
        <mxCell id="l1iqNx5NcCHNy8qaXpVw-146" value="+Display_notenough_points() : Void" style="text;html=1;align=left;verticalAlign=middle;resizable=0;points=[];autosize=1;strokeColor=none;fillColor=none;" parent="l1iqNx5NcCHNy8qaXpVw-143" vertex="1">
          <mxGeometry y="184" width="210" height="30" as="geometry" />
        </mxCell>
        <mxCell id="l1iqNx5NcCHNy8qaXpVw-147" value="+Display_Enough_points() : Void" style="text;html=1;align=left;verticalAlign=middle;resizable=0;points=[];autosize=1;strokeColor=none;fillColor=none;" parent="l1iqNx5NcCHNy8qaXpVw-143" vertex="1">
          <mxGeometry y="214" width="210" height="30" as="geometry" />
        </mxCell>
        <mxCell id="l1iqNx5NcCHNy8qaXpVw-148" value="+Calcoulate_Order_Price() : Void" style="text;html=1;align=left;verticalAlign=middle;resizable=0;points=[];autosize=1;strokeColor=none;fillColor=none;" parent="l1iqNx5NcCHNy8qaXpVw-143" vertex="1">
          <mxGeometry y="244" width="210" height="30" as="geometry" />
        </mxCell>
        <mxCell id="l1iqNx5NcCHNy8qaXpVw-150" value="+Edit_Points():Integer" style="text;align=left;verticalAlign=top;spacingLeft=4;spacingRight=4;overflow=hidden;rotatable=0;points=[[0,0.5],[1,0.5]];portConstraint=eastwest;" parent="l1iqNx5NcCHNy8qaXpVw-143" vertex="1">
          <mxGeometry y="274" width="210" height="26" as="geometry" />
        </mxCell>
        <mxCell id="l1iqNx5NcCHNy8qaXpVw-149" value="+Check_Points():void" style="text;align=left;verticalAlign=top;spacingLeft=4;spacingRight=4;overflow=hidden;rotatable=0;points=[[0,0.5],[1,0.5]];portConstraint=eastwest;" parent="l1iqNx5NcCHNy8qaXpVw-143" vertex="1">
          <mxGeometry y="300" width="210" height="26" as="geometry" />
        </mxCell>
        <mxCell id="9RGXpwB4oHRjQe0waj22-31" value="ORDER_HISTORY" style="swimlane;fontStyle=1;align=center;verticalAlign=top;childLayout=stackLayout;horizontal=1;startSize=26;horizontalStack=0;resizeParent=1;resizeLast=0;collapsible=1;marginBottom=0;rounded=0;shadow=0;strokeWidth=1;" parent="1" vertex="1">
          <mxGeometry x="990" y="-1150" width="270" height="190" as="geometry">
            <mxRectangle x="690" y="60" width="160" height="26" as="alternateBounds" />
          </mxGeometry>
        </mxCell>
        <mxCell id="9RGXpwB4oHRjQe0waj22-32" value="&lt;br&gt;-Pharmacy_ID : Integer" style="text;html=1;align=left;verticalAlign=middle;resizable=0;points=[];autosize=1;strokeColor=none;fillColor=none;" parent="9RGXpwB4oHRjQe0waj22-31" vertex="1">
          <mxGeometry y="26" width="270" height="40" as="geometry" />
        </mxCell>
        <mxCell id="9RGXpwB4oHRjQe0waj22-57" value="-User_ID:Integer" style="text;html=1;align=left;verticalAlign=middle;resizable=0;points=[];autosize=1;strokeColor=none;fillColor=none;" parent="9RGXpwB4oHRjQe0waj22-31" vertex="1">
          <mxGeometry y="66" width="270" height="30" as="geometry" />
        </mxCell>
        <mxCell id="9RGXpwB4oHRjQe0waj22-34" value="-Email : String" style="text;html=1;align=left;verticalAlign=middle;resizable=0;points=[];autosize=1;strokeColor=none;fillColor=none;" parent="9RGXpwB4oHRjQe0waj22-31" vertex="1">
          <mxGeometry y="96" width="270" height="30" as="geometry" />
        </mxCell>
        <mxCell id="9RGXpwB4oHRjQe0waj22-40" value="" style="line;html=1;strokeWidth=1;align=left;verticalAlign=middle;spacingTop=-1;spacingLeft=3;spacingRight=3;rotatable=0;labelPosition=right;points=[];portConstraint=eastwest;" parent="9RGXpwB4oHRjQe0waj22-31" vertex="1">
          <mxGeometry y="126" width="270" height="24" as="geometry" />
        </mxCell>
        <mxCell id="9RGXpwB4oHRjQe0waj22-41" value="+view_Order_History():void" style="text;html=1;align=left;verticalAlign=middle;resizable=0;points=[];autosize=1;strokeColor=none;fillColor=none;" parent="9RGXpwB4oHRjQe0waj22-31" vertex="1">
          <mxGeometry y="150" width="270" height="30" as="geometry" />
        </mxCell>
        <mxCell id="MwRQrb0zua5fnId4gYF2-25" value="" style="endArrow=block;endSize=16;endFill=0;html=1;rounded=0;entryX=0.004;entryY=0.215;entryDx=0;entryDy=0;entryPerimeter=0;exitX=1.017;exitY=0.031;exitDx=0;exitDy=0;exitPerimeter=0;" edge="1" parent="1" source="l1iqNx5NcCHNy8qaXpVw-170" target="l1iqNx5NcCHNy8qaXpVw-18">
          <mxGeometry x="0.125" y="65" width="160" relative="1" as="geometry">
            <mxPoint x="-20" y="465" as="sourcePoint" />
            <mxPoint x="140" y="465" as="targetPoint" />
            <mxPoint as="offset" />
          </mxGeometry>
        </mxCell>
        <mxCell id="MwRQrb0zua5fnId4gYF2-29" value="" style="endArrow=none;html=1;rounded=0;exitX=0.454;exitY=-0.005;exitDx=0;exitDy=0;exitPerimeter=0;entryX=0.491;entryY=0.954;entryDx=0;entryDy=0;entryPerimeter=0;" edge="1" parent="1" source="l1iqNx5NcCHNy8qaXpVw-1" target="eqAYTbt9n-OWrJhPP6kn-1">
          <mxGeometry width="50" height="50" relative="1" as="geometry">
            <mxPoint x="230" y="-70" as="sourcePoint" />
            <mxPoint x="280" y="-120" as="targetPoint" />
          </mxGeometry>
        </mxCell>
        <mxCell id="MwRQrb0zua5fnId4gYF2-30" value="" style="endArrow=none;html=1;rounded=0;entryX=0.395;entryY=1.067;entryDx=0;entryDy=0;entryPerimeter=0;exitX=1;exitY=0.5;exitDx=0;exitDy=0;" edge="1" parent="1" source="l1iqNx5NcCHNy8qaXpVw-31" target="l1iqNx5NcCHNy8qaXpVw-133">
          <mxGeometry width="50" height="50" relative="1" as="geometry">
            <mxPoint x="740" y="330" as="sourcePoint" />
            <mxPoint x="790" y="280" as="targetPoint" />
            <Array as="points">
              <mxPoint x="790" y="249" />
            </Array>
          </mxGeometry>
        </mxCell>
        <mxCell id="MwRQrb0zua5fnId4gYF2-31" value="" style="endArrow=none;html=1;rounded=0;entryX=0.481;entryY=1;entryDx=0;entryDy=0;entryPerimeter=0;exitX=0.463;exitY=0.005;exitDx=0;exitDy=0;exitPerimeter=0;" edge="1" parent="1" source="l1iqNx5NcCHNy8qaXpVw-70" target="l1iqNx5NcCHNy8qaXpVw-111">
          <mxGeometry width="50" height="50" relative="1" as="geometry">
            <mxPoint x="-100" y="-410" as="sourcePoint" />
            <mxPoint x="-50" y="-460" as="targetPoint" />
            <Array as="points">
              <mxPoint x="-37" y="-400" />
              <mxPoint x="-244" y="-400" />
            </Array>
          </mxGeometry>
        </mxCell>
        <mxCell id="MwRQrb0zua5fnId4gYF2-32" value="" style="endArrow=none;html=1;rounded=0;entryX=-0.012;entryY=0.747;entryDx=0;entryDy=0;entryPerimeter=0;exitX=0.593;exitY=-0.007;exitDx=0;exitDy=0;exitPerimeter=0;" edge="1" parent="1" source="l1iqNx5NcCHNy8qaXpVw-75" target="l1iqNx5NcCHNy8qaXpVw-183">
          <mxGeometry width="50" height="50" relative="1" as="geometry">
            <mxPoint x="-100" y="-1110" as="sourcePoint" />
            <mxPoint x="-50" y="-1160" as="targetPoint" />
            <Array as="points">
              <mxPoint x="-220" y="-1226" />
            </Array>
          </mxGeometry>
        </mxCell>
        <mxCell id="MwRQrb0zua5fnId4gYF2-33" value="" style="endArrow=none;html=1;rounded=0;entryX=0.82;entryY=-0.006;entryDx=0;entryDy=0;entryPerimeter=0;exitX=0.25;exitY=0;exitDx=0;exitDy=0;" edge="1" parent="1" source="l1iqNx5NcCHNy8qaXpVw-75" target="9RGXpwB4oHRjQe0waj22-31">
          <mxGeometry width="50" height="50" relative="1" as="geometry">
            <mxPoint x="970" y="-1180" as="sourcePoint" />
            <mxPoint x="1020" y="-1230" as="targetPoint" />
            <Array as="points">
              <mxPoint x="-290" y="-1520" />
              <mxPoint x="1210" y="-1520" />
            </Array>
          </mxGeometry>
        </mxCell>
        <mxCell id="MwRQrb0zua5fnId4gYF2-34" value="" style="endArrow=none;html=1;rounded=0;entryX=0.5;entryY=0;entryDx=0;entryDy=0;exitX=1;exitY=0.5;exitDx=0;exitDy=0;" edge="1" parent="1" source="l1iqNx5NcCHNy8qaXpVw-101" target="l1iqNx5NcCHNy8qaXpVw-123">
          <mxGeometry width="50" height="50" relative="1" as="geometry">
            <mxPoint x="560" y="-910" as="sourcePoint" />
            <mxPoint x="610" y="-960" as="targetPoint" />
            <Array as="points">
              <mxPoint x="810" y="-1170" />
            </Array>
          </mxGeometry>
        </mxCell>
        <mxCell id="MwRQrb0zua5fnId4gYF2-36" value="" style="endArrow=none;html=1;rounded=0;exitX=0.669;exitY=0.004;exitDx=0;exitDy=0;exitPerimeter=0;entryX=0.008;entryY=0.059;entryDx=0;entryDy=0;entryPerimeter=0;" edge="1" parent="1" source="l1iqNx5NcCHNy8qaXpVw-70" target="l1iqNx5NcCHNy8qaXpVw-108">
          <mxGeometry width="50" height="50" relative="1" as="geometry">
            <mxPoint x="150" y="-650" as="sourcePoint" />
            <mxPoint x="200" y="-700" as="targetPoint" />
            <Array as="points">
              <mxPoint x="4" y="-756" />
            </Array>
          </mxGeometry>
        </mxCell>
        <mxCell id="MwRQrb0zua5fnId4gYF2-37" value="" style="endArrow=block;endSize=16;endFill=0;html=1;rounded=0;exitX=0.995;exitY=0.146;exitDx=0;exitDy=0;exitPerimeter=0;entryX=0.008;entryY=0.11;entryDx=0;entryDy=0;entryPerimeter=0;" edge="1" parent="1" source="9RGXpwB4oHRjQe0waj22-4" target="eqAYTbt9n-OWrJhPP6kn-3">
          <mxGeometry x="-0.0173" y="-64" width="160" relative="1" as="geometry">
            <mxPoint x="-320" y="-140" as="sourcePoint" />
            <mxPoint x="-160" y="-140" as="targetPoint" />
            <mxPoint as="offset" />
          </mxGeometry>
        </mxCell>
        <mxCell id="MwRQrb0zua5fnId4gYF2-28" value="1" style="endArrow=open;html=1;endSize=12;startArrow=diamondThin;startSize=14;startFill=1;edgeStyle=orthogonalEdgeStyle;align=left;verticalAlign=bottom;rounded=0;entryX=0.5;entryY=0;entryDx=0;entryDy=0;" edge="1" parent="1" target="l1iqNx5NcCHNy8qaXpVw-39">
          <mxGeometry x="-0.3462" relative="1" as="geometry">
            <mxPoint x="290" y="-562" as="sourcePoint" />
            <mxPoint x="330" y="-430" as="targetPoint" />
            <Array as="points">
              <mxPoint x="290" y="-562" />
            </Array>
            <mxPoint as="offset" />
          </mxGeometry>
        </mxCell>
        <mxCell id="MwRQrb0zua5fnId4gYF2-39" value="1" style="endArrow=open;html=1;endSize=12;startArrow=diamondThin;startSize=14;startFill=0;edgeStyle=orthogonalEdgeStyle;align=left;verticalAlign=bottom;rounded=0;exitX=0.471;exitY=1.162;exitDx=0;exitDy=0;exitPerimeter=0;" edge="1" parent="1" source="l1iqNx5NcCHNy8qaXpVw-191" target="l1iqNx5NcCHNy8qaXpVw-65">
          <mxGeometry x="-0.4016" relative="1" as="geometry">
            <mxPoint x="280" y="-810" as="sourcePoint" />
            <mxPoint x="440" y="-810" as="targetPoint" />
            <Array as="points">
              <mxPoint x="290" y="-1020" />
              <mxPoint x="290" y="-1020" />
            </Array>
            <mxPoint y="1" as="offset" />
          </mxGeometry>
        </mxCell>
        <mxCell id="MwRQrb0zua5fnId4gYF2-40" value="" style="endArrow=none;html=1;rounded=0;exitX=1.004;exitY=-0.029;exitDx=0;exitDy=0;exitPerimeter=0;entryX=0.432;entryY=-0.023;entryDx=0;entryDy=0;entryPerimeter=0;" edge="1" parent="1" source="l1iqNx5NcCHNy8qaXpVw-188" target="9RGXpwB4oHRjQe0waj22-31">
          <mxGeometry width="50" height="50" relative="1" as="geometry">
            <mxPoint x="780" y="-1320" as="sourcePoint" />
            <mxPoint x="830" y="-1370" as="targetPoint" />
            <Array as="points">
              <mxPoint x="1107" y="-1339" />
            </Array>
          </mxGeometry>
        </mxCell>
        <mxCell id="MwRQrb0zua5fnId4gYF2-41" value="1" style="endArrow=open;html=1;endSize=12;startArrow=diamondThin;startSize=14;startFill=1;edgeStyle=orthogonalEdgeStyle;align=left;verticalAlign=bottom;rounded=0;entryX=1;entryY=0.5;entryDx=0;entryDy=0;exitX=0.5;exitY=0;exitDx=0;exitDy=0;" edge="1" parent="1" source="l1iqNx5NcCHNy8qaXpVw-50" target="l1iqNx5NcCHNy8qaXpVw-43">
          <mxGeometry x="-0.9402" relative="1" as="geometry">
            <mxPoint x="630" y="-10" as="sourcePoint" />
            <mxPoint x="790" y="-10" as="targetPoint" />
            <mxPoint y="-1" as="offset" />
          </mxGeometry>
        </mxCell>
        <mxCell id="MwRQrb0zua5fnId4gYF2-42" value="" style="endArrow=none;html=1;rounded=0;exitX=1;exitY=0.5;exitDx=0;exitDy=0;entryX=0.027;entryY=-0.238;entryDx=0;entryDy=0;entryPerimeter=0;" edge="1" parent="1" source="l1iqNx5NcCHNy8qaXpVw-143" target="l1iqNx5NcCHNy8qaXpVw-169">
          <mxGeometry width="50" height="50" relative="1" as="geometry">
            <mxPoint x="-250" y="280" as="sourcePoint" />
            <mxPoint x="-200" y="230" as="targetPoint" />
          </mxGeometry>
        </mxCell>
        <mxCell id="MwRQrb0zua5fnId4gYF2-44" value="" style="endArrow=none;html=1;rounded=0;exitX=0;exitY=0.5;exitDx=0;exitDy=0;entryX=0.456;entryY=1.042;entryDx=0;entryDy=0;entryPerimeter=0;" edge="1" parent="1" source="l1iqNx5NcCHNy8qaXpVw-23" target="l1iqNx5NcCHNy8qaXpVw-103">
          <mxGeometry width="50" height="50" relative="1" as="geometry">
            <mxPoint x="270" y="20" as="sourcePoint" />
            <mxPoint x="320" y="-30" as="targetPoint" />
            <Array as="points">
              <mxPoint x="-39" y="271" />
            </Array>
          </mxGeometry>
        </mxCell>
        <mxCell id="MwRQrb0zua5fnId4gYF2-45" value="" style="endArrow=none;html=1;rounded=0;entryX=-0.001;entryY=0.022;entryDx=0;entryDy=0;entryPerimeter=0;exitX=1.016;exitY=0.133;exitDx=0;exitDy=0;exitPerimeter=0;" edge="1" parent="1" source="l1iqNx5NcCHNy8qaXpVw-18" target="l1iqNx5NcCHNy8qaXpVw-175">
          <mxGeometry width="50" height="50" relative="1" as="geometry">
            <mxPoint x="270" y="290" as="sourcePoint" />
            <mxPoint x="320" y="240" as="targetPoint" />
          </mxGeometry>
        </mxCell>
      </root>
    </mxGraphModel>
  </diagram>
</mxfile>
